PathFileType  4	(X/Y/Z) C:\Users\antoi\Documents\MyRepositories\mobilecap\ResultsAnalysis
DataRate	CameraRate	NumFrames	NumMarkers	Units	OrigDataRate	OrigDataStartFrame	OrigNumFrames
100.0	100.0	4	51	mm	100.0	1012	1349
Frame#	Time	r_knee			r_shank_antsup			r_ankle			r_calc			r_5meta			r_toe			L_knee			L_shank_antsup			L_ankle			L_calc			L_5meta			L_toe			r_sh2			r_sh3			r_sh4			L_sh2			L_sh3			r_thigh1			r_thigh2			r_thigh3			r_thigh4			r_thigh5			L_thigh1			L_thigh2			L_thigh3			L_thigh4			r.ASIS			r.PSIS			L.ASIS			L.PSIS			C7			R_Shoulder			L_Shoulder			R_Sternum			L_Sternum			R_humerus			R_elbow_med			R_elbow_lat			R_forearm			R_wrist_radius			R_wrist_ulna			L_humerus			L_elbow_med			L_elbow_lat			L_forearm			L_wrist_radius			L_wrist_ulna			R_HJC			L_HJC			R_HJC_reg			L_HJC_reg			
		X1	Y1	Z1	X2	Y2	Z2	X3	Y3	Z3	X4	Y4	Z4	X5	Y5	Z5	X6	Y6	Z6	X7	Y7	Z7	X8	Y8	Z8	X9	Y9	Z9	X10	Y10	Z10	X11	Y11	Z11	X12	Y12	Z12	X13	Y13	Z13	X14	Y14	Z14	X15	Y15	Z15	X16	Y16	Z16	X17	Y17	Z17	X18	Y18	Z18	X19	Y19	Z19	X20	Y20	Z20	X21	Y21	Z21	X22	Y22	Z22	X23	Y23	Z23	X24	Y24	Z24	X25	Y25	Z25	X26	Y26	Z26	X27	Y27	Z27	X28	Y28	Z28	X29	Y29	Z29	X30	Y30	Z30	X31	Y31	Z31	X32	Y32	Z32	X33	Y33	Z33	X34	Y34	Z34	X35	Y35	Z35	X36	Y36	Z36	X37	Y37	Z37	X38	Y38	Z38	X39	Y39	Z39	X40	Y40	Z40	X41	Y41	Z41	X42	Y42	Z42	X43	Y43	Z43	X44	Y44	Z44	X45	Y45	Z45	X46	Y46	Z46	X47	Y47	Z47	X48	Y48	Z48	X49	Y49	Z49	X50	Y50	Z50	X51	Y51	Z51	

1012	10.11000000	-219.51472	548.71639	-434.51310	-184.50897	424.00171	-429.38530	-294.23340	98.05801	-424.32631	-351.97824	64.77784	-477.48316	-170.19146	37.04796	-353.54101	-123.14315	61.31819	-419.28568	-235.84661	539.54339	-898.23474	-185.28872	433.65700	-896.21387	-290.45141	97.10590	-901.29785	-348.66326	68.19771	-847.62430	-155.66123	35.34555	-951.42815	-116.20590	59.40377	-886.19795	-188.68149	308.74621	-442.69858	-252.85651	420.94761	-392.01436	-251.04812	303.62838	-386.47179	-270.90106	441.33132	-924.12882	-260.93840	321.28261	-946.38329	-203.92070	799.67549	-471.15303	-168.33584	692.28614	-469.53514	-193.40066	660.62349	-415.30554	-291.53136	769.08314	-404.55800	-248.99665	658.01704	-407.80271	-245.87119	805.38842	-886.03691	-193.57632	679.43804	-895.34388	-349.47297	761.49732	-906.80034	-294.44553	634.96436	-911.44697	-264.36137	999.08856	-521.85432	-444.51178	1090.63720	-605.70804	-267.36381	991.62455	-783.98782	-446.37659	1089.62273	-705.50827	-237.46737	1537.87487	-655.19746	-145.62285	1464.58629	-475.05624	-142.92440	1475.28925	-816.00447	-112.03239	1434.06600	-634.96692	-119.31473	1429.06628	-671.32290	-61.59018	1347.06049	-408.85380	7.32701	1126.41128	-446.49420	33.62010	1168.86166	-369.00639	98.77020	1293.73026	-457.29092	157.77654	1369.33883	-520.52315	197.39358	1355.02056	-517.02850	-57.63544	1350.98989	-891.82580	0.59078	1124.69868	-872.43997	34.58369	1178.09549	-933.37208	78.25394	1287.86212	-820.68781	143.24963	1361.90147	-763.95534	185.28317	1347.37790	-783.01753	-365.57816	946.94739	-554.11434	-368.07313	930.15697	-766.82974	-357.33588	943.71928	-556.82117	-360.56968	941.96031	-729.87159	
1013	10.12000000	-221.78023	549.41035	-435.24823	-186.48061	424.93508	-429.85808	-294.22007	98.18431	-424.25068	-351.92686	64.90977	-477.40491	-170.17772	36.95226	-353.49609	-122.99750	61.04148	-419.24710	-238.51391	540.22590	-896.99569	-187.87202	434.64209	-895.25976	-290.59100	97.23342	-901.07541	-348.66925	68.13866	-847.62299	-155.65729	35.30192	-951.45914	-116.13433	59.29886	-886.20572	-189.95984	309.64925	-442.80996	-254.86465	421.64297	-392.45326	-252.29998	304.49923	-386.62148	-273.43982	441.70185	-923.10054	-262.60377	321.79705	-945.78555	-202.04132	799.96508	-471.35248	-168.33249	691.95683	-469.81728	-194.02585	660.65313	-415.69453	-290.31684	770.73909	-405.00793	-249.52619	658.86760	-408.46871	-244.27782	806.15608	-885.45606	-194.14465	679.25228	-894.40387	-348.63803	763.84836	-905.85476	-295.72151	636.43992	-910.19281	-260.56966	1003.13450	-521.67323	-441.66751	1093.20368	-605.18778	-263.93338	995.68995	-784.14334	-443.76828	1092.31216	-705.09777	-238.47054	1542.51039	-654.77606	-146.37523	1469.50104	-474.73704	-144.13889	1480.20001	-816.05775	-112.70298	1439.20353	-634.40613	-119.85758	1434.37468	-671.07602	-62.67195	1351.24573	-408.38092	4.91463	1130.12768	-446.14540	31.63478	1172.40474	-368.70984	97.43644	1296.91675	-456.92662	156.77314	1372.08225	-520.44442	196.23855	1357.55028	-517.03871	-58.98762	1355.42011	-892.66163	-2.08675	1128.66252	-872.73299	31.98870	1181.96694	-933.81284	76.41539	1291.45676	-820.99841	141.78160	1365.20654	-764.57150	183.86757	1350.44354	-783.47263	-361.42390	950.15966	-553.90404	-364.19671	933.45518	-766.62304	-353.11013	946.76933	-556.54721	-356.75268	945.22293	-729.81605	
1014	10.13000000	-223.91951	550.03503	-435.99248	-188.37170	425.92269	-430.40690	-294.21645	98.28675	-424.21213	-351.87416	65.01995	-477.32004	-170.16655	36.87141	-353.45539	-122.82357	60.82113	-419.22237	-241.23569	540.89344	-895.83330	-190.60149	435.63534	-894.27757	-290.81522	97.33616	-900.90047	-348.68590	68.12367	-847.67593	-155.68024	35.23316	-951.51288	-116.10119	59.24812	-886.23405	-191.18165	310.54925	-442.91851	-256.85671	422.30301	-392.95043	-253.60475	305.39000	-386.67186	-276.23308	442.06717	-922.01231	-264.48722	322.25940	-945.01649	-200.11687	800.13612	-471.60298	-168.32278	691.58604	-470.27542	-194.56425	660.65751	-416.26874	-288.95835	772.32082	-405.56899	-250.07737	659.76757	-409.17602	-242.74649	806.86515	-884.83347	-194.76474	679.01454	-893.40919	-347.76717	766.24161	-905.00235	-297.15339	637.92912	-909.01607	-256.74548	1006.77217	-521.44419	-438.77882	1095.61821	-604.96590	-260.53611	999.57138	-783.91638	-441.05399	1094.88493	-704.88027	-239.48562	1547.05112	-654.40063	-147.13025	1474.38160	-474.49279	-145.35909	1484.92833	-815.96126	-113.67182	1444.04600	-633.62984	-120.33819	1439.50258	-670.97517	-63.65869	1355.26457	-407.88277	2.43586	1133.80903	-445.73657	29.61020	1175.89787	-368.35304	96.14142	1299.95959	-456.60512	155.76043	1374.72050	-520.31456	195.16784	1359.95188	-517.01393	-60.26380	1359.77453	-893.65509	-4.78193	1132.50409	-872.89118	29.44326	1185.75856	-934.23266	74.53876	1294.98365	-821.34010	140.47464	1368.47053	-765.19960	182.47883	1353.32114	-783.94256	-357.43101	953.16290	-553.73121	-360.25823	936.56707	-766.45808	-348.94487	949.67358	-556.24678	-352.89009	948.40210	-729.51217	
1015	10.14000000	-225.95474	550.60429	-436.77726	-190.29312	426.93446	-430.97899	-294.22424	98.39806	-424.18777	-351.81518	65.14040	-477.24707	-170.18916	36.80191	-353.38597	-122.70093	60.66310	-419.22354	-244.12939	541.61986	-894.76767	-193.51557	436.69897	-893.34826	-291.15400	97.42900	-900.91969	-348.69861	68.12750	-847.77095	-155.72092	35.14784	-951.57695	-116.09867	59.24038	-886.28489	-192.40816	311.48687	-443.04243	-258.79586	422.95115	-393.49671	-254.89930	305.86422	-387.18980	-279.07876	442.89705	-921.54502	-266.65084	322.83031	-944.30524	-198.19999	800.23612	-471.97351	-168.30433	691.17084	-470.84531	-195.02667	660.72514	-416.77741	-287.50890	773.86277	-406.16974	-250.73043	660.71555	-409.80304	-241.28713	807.53960	-884.14743	-195.47690	678.74755	-892.37239	-346.89002	768.69112	-904.37229	-298.62334	639.40852	-907.81436	-252.92691	1010.32356	-521.37698	-435.86371	1097.91165	-604.78412	-257.12666	1003.36457	-783.75254	-438.21703	1097.29838	-704.61191	-240.50310	1551.40135	-654.06703	-147.94398	1479.26167	-474.09211	-146.58603	1489.48981	-815.90407	-114.39999	1448.84792	-633.14288	-120.79962	1444.49054	-670.94922	-64.58041	1359.09573	-407.50153	0.02333	1137.34893	-445.35646	27.57528	1179.27419	-368.01466	94.80335	1302.82588	-456.44271	154.74134	1377.23308	-520.14078	194.14953	1362.26006	-516.93172	-61.83602	1363.81198	-894.07876	-7.48809	1136.28491	-873.08881	26.91844	1189.37908	-934.50429	72.70225	1298.37492	-821.76406	139.32869	1371.59974	-765.73315	181.05932	1356.04935	-784.48093	-353.37357	956.04625	-553.62409	-356.29201	939.58392	-766.35986	-344.82452	952.53646	-556.16102	-348.90745	951.47268	-729.36060	
